<svg width="75" height="63" viewBox="0 0 75 63" fill="none" xmlns="http://www.w3.org/2000/svg">
<path d="M74.8566 0H0V5.41132H74.8566V0Z" fill="#9F9E9B"/>
<path d="M9.94263 7.21503H2.94751V63H9.94263V7.21503Z" fill="#9F9E9B"/>
<path d="M18.4116 7.21503H11.4165V63H18.4116V7.21503Z" fill="#9F9E9B"/>
<path d="M26.9907 7.21503H19.9956V63H26.9907V7.21503Z" fill="#9F9E9B"/>
<path d="M35.4596 7.21503H28.4645V63H35.4596V7.21503Z" fill="#9F9E9B"/>
<path d="M44.0383 7.21503H37.0432V63H44.0383V7.21503Z" fill="#9F9E9B"/>
<path d="M52.7274 7.21503H45.7323V63H52.7274V7.21503Z" fill="#9F9E9B"/>
<path d="M61.5483 7.21503H54.5532V63H61.5483V7.21503Z" fill="#9F9E9B"/>
<path d="M70.1271 7.21503H63.132V63H70.1271V7.21503Z" fill="#9F9E9B"/>
<path d="M72.7668 7.21503H72.0189V26.4186H72.7668V7.21503Z" fill="#9F9E9B"/>
<path d="M73.1849 27.2546H71.5352V30.7082H73.1849V27.2546Z" fill="#9F9E9B"/>
</svg>
