<svg width="82" height="63" viewBox="0 0 82 63" fill="none" xmlns="http://www.w3.org/2000/svg">
<path d="M76.659 13H4.23462V17.2554H76.659V13Z" fill="#9F9E9B"/>
<path d="M76.659 6H4.23462V10.2554H76.659V6Z" fill="#9F9E9B"/>
<path d="M76.659 0H4.23462V4.25537H76.659V0Z" fill="#9F9E9B"/>
<path d="M76.659 19.684H4.23462V23.9394H76.659V19.684Z" fill="#9F9E9B"/>
<path d="M76.5551 25.9529H4.13074V30.2083H76.5551V25.9529Z" fill="#9F9E9B"/>
<path d="M76.5551 32.6162H4.13074V36.8716H76.5551V32.6162Z" fill="#9F9E9B"/>
<path d="M76.5551 39.0927H4.13074V43.3481H76.5551V39.0927Z" fill="#9F9E9B"/>
<path d="M76.5551 45.3616H4.13074V49.617H76.5551V45.3616Z" fill="#9F9E9B"/>
<path d="M76.5551 52.2532H4.13074V56.5085H76.5551V52.2532Z" fill="#9F9E9B"/>
<path d="M81.537 58.7297H0V62.985H81.537V58.7297Z" fill="#9F9E9B"/>
<path d="M81.537 0H0V4.25537H81.537V0Z" fill="#9F9E9B"/>
</svg>
