<svg width="123" height="63" viewBox="0 0 123 63" fill="none" xmlns="http://www.w3.org/2000/svg">
<path d="M103.666 0H20.4487V11.9823H103.666V0Z" fill="#9F9E9B"/>
<path d="M100.787 13.6023H23.4685V17.8977H100.787V13.6023Z" fill="#9F9E9B"/>
<path d="M100.787 18.6136H23.4685V22.9091H100.787V18.6136Z" fill="#9F9E9B"/>
<path d="M100.787 23.625H23.4685V27.9205H100.787V23.625Z" fill="#9F9E9B"/>
<path d="M100.787 28.6364H23.4685V32.9318H100.787V28.6364Z" fill="#9F9E9B"/>
<path d="M100.787 33.6477H23.4685V37.9432H100.787V33.6477Z" fill="#9F9E9B"/>
<path d="M100.787 38.6591H23.4685V42.9546H100.787V38.6591Z" fill="#9F9E9B"/>
<path d="M100.787 43.6705H23.4685V47.9659H100.787V43.6705Z" fill="#9F9E9B"/>
<path d="M100.787 48.6818H23.4685V52.9773H100.787V48.6818Z" fill="#9F9E9B"/>
<path d="M100.787 53.6932H23.4685V57.9886H100.787V53.6932Z" fill="#9F9E9B"/>
<path d="M100.787 58.7045H23.4685V63H100.787V58.7045Z" fill="#9F9E9B"/>
<path d="M122.838 0H102.365V62.4966H122.838V0Z" fill="#9F9E9B"/>
<path d="M21.5505 0H0V62.4966H21.5505V0Z" fill="#9F9E9B"/>
</svg>
