<svg width="86" height="64" viewBox="0 0 86 64" fill="none" xmlns="http://www.w3.org/2000/svg">
<path d="M81.9521 0H3.23816V11.3338H81.9521V0Z" fill="#9F9E9B"/>
<path d="M78.9008 13.1605H6.47644V17.4159H78.9008V13.1605Z" fill="#9F9E9B"/>
<path d="M78.9008 19.8445H6.47644V24.0999H78.9008V19.8445Z" fill="#9F9E9B"/>
<path d="M78.797 26.1135H6.37268V30.3688H78.797V26.1135Z" fill="#9F9E9B"/>
<path d="M78.797 32.7767H6.37268V37.0321H78.797V32.7767Z" fill="#9F9E9B"/>
<path d="M78.797 39.2532H6.37268V43.5085H78.797V39.2532Z" fill="#9F9E9B"/>
<path d="M78.797 45.5221H6.37268V49.7775H78.797V45.5221Z" fill="#9F9E9B"/>
<path d="M78.797 52.4137H6.37268V56.6691H78.797V52.4137Z" fill="#9F9E9B"/>
<path d="M83.7789 58.8901H2.24182V63.1455H83.7789V58.8901Z" fill="#9F9E9B"/>
<path d="M2.22109 2.24188H0V8.71834H2.22109V2.24188Z" fill="#9F9E9B"/>
<path d="M86 2.42871H83.7789V8.90518H86V2.42871Z" fill="#9F9E9B"/>
<path d="M81.9522 13.1605H81.0388V36.2225H81.9522V13.1605Z" fill="#9F9E9B"/>
<path d="M82.4296 37.2397H80.4576V41.3913H82.4296V37.2397Z" fill="#9F9E9B"/>
</svg>
