<svg width="85" height="63" viewBox="0 0 85 63" fill="none" xmlns="http://www.w3.org/2000/svg">
<path d="M40 0H3V11H40V0Z" fill="#9F9E9B"/>
<path d="M82 0H44V11H82V0Z" fill="#9F9E9B"/>
<path d="M40 12H6V37H40V12Z" fill="#9F9E9B"/>
<path d="M79 12H44V48H79V12Z" fill="#9F9E9B"/>
<path d="M83.4666 58.6852H2.21338V62.9257H83.4666V58.6852Z" fill="#9F9E9B"/>
<path d="M82 0H3V11H82V0Z" fill="#9F9E9B"/>
<path d="M2.21337 2.21338H0V8.6673H2.21337V2.21338Z" fill="#9F9E9B"/>
<path d="M85 2.42023H82.7866V8.87415H85V2.42023Z" fill="#9F9E9B"/>
<path d="M84.4287 10.88H83.5186V33.8618H84.4287V10.88Z" fill="#9F9E9B"/>
<path d="M84.9251 34.8753H82.96V39.0124H84.9251V34.8753Z" fill="#9F9E9B"/>
<path d="M1.46875 10.88H0.558594V33.8618H1.46875V10.88Z" fill="#9F9E9B"/>
<path d="M1.96514 34.8753H0V39.0124H1.96514V34.8753Z" fill="#9F9E9B"/>
<rect x="3" y="12" width="2.04" height="45.56" fill="#9F9E9B"/>
<rect x="41" width="2" height="58" fill="#9F9E9B"/>
<rect x="80" y="12" width="2.04" height="45.56" fill="#9F9E9B"/>
</svg>
