<svg width="83" height="65" viewBox="0 0 83 65" fill="none" xmlns="http://www.w3.org/2000/svg">
<path d="M81 0H1V2H81V0Z" fill="#9F9E9B"/>
<path d="M39 31H4V34H39V31Z" fill="#9F9E9B"/>
<path d="M39 27H4V30H39V27Z" fill="#9F9E9B"/>
<path d="M39 23H4V26H39V23Z" fill="#9F9E9B"/>
<path d="M39 19H4V22H39V19Z" fill="#9F9E9B"/>
<path d="M39 15H4V18H39V15Z" fill="#9F9E9B"/>
<path d="M39 11H4V14H39V11Z" fill="#9F9E9B"/>
<path d="M39 7H4V10H39V7Z" fill="#9F9E9B"/>
<path d="M39 3H4V6H39V3Z" fill="#9F9E9B"/>
<path d="M78 19H43V22H78V19Z" fill="#9F9E9B"/>
<path d="M78 15H43V18H78V15Z" fill="#9F9E9B"/>
<path d="M78 11H43V14H78V11Z" fill="#9F9E9B"/>
<path d="M78 7H43V10H78V7Z" fill="#9F9E9B"/>
<path d="M78 3H43V6H78V3Z" fill="#9F9E9B"/>
<path d="M39 35H4V37H39V35Z" fill="#9F9E9B"/>
<path d="M39 38H4V39H39V38Z" fill="#9F9E9B"/>
<path d="M39 40H4V41H39V40Z" fill="#9F9E9B"/>
<path d="M39 42H4V43H39V42Z" fill="#9F9E9B"/>
<path d="M78 23H43V25H78V23Z" fill="#9F9E9B"/>
<path d="M78 26H43V28H78V26Z" fill="#9F9E9B"/>
<path d="M78 29H43V30H78V29Z" fill="#9F9E9B"/>
<path d="M78 31H43V32H78V31Z" fill="#9F9E9B"/>
<path d="M83 60H0V65H83V60Z" fill="#9F9E9B"/>
<rect x="1" y="3" width="2" height="56" fill="#9F9E9B"/>
<rect x="79" y="3" width="2" height="56" fill="#9F9E9B"/>
<rect x="40" y="3" width="2" height="56" fill="#9F9E9B"/>
</svg>
