<svg width="86" height="64" viewBox="0 0 86 64" fill="none" xmlns="http://www.w3.org/2000/svg">
<path d="M82.6069 0H3.24402V11.4272H82.6069V0Z" fill="#9F9E9B"/>
<path d="M79.808 12.384H6.19202V44.032H79.808V12.384Z" fill="#9F9E9B"/>
<path d="M84.4487 59.3756H2.2395V63.6661H84.4487V59.3756Z" fill="#9F9E9B"/>
<path d="M2.23941 2.23938H0V8.76924H2.23941V2.23938Z" fill="#9F9E9B"/>
<path d="M86 2.44867H83.7606V8.97853H86V2.44867Z" fill="#9F9E9B"/>
<rect x="3.43994" y="12.384" width="2.064" height="46.096" fill="#9F9E9B"/>
<rect x="80.496" y="12.384" width="2.064" height="46.096" fill="#9F9E9B"/>
<path d="M40.2492 35.8926L45.6906 30.4265C45.9138 30.2033 45.7543 29.8225 45.439 29.8225H45.0051C44.7093 29.8225 44.5428 29.4806 44.727 29.2486L47.6124 25.6104C47.7966 25.3783 47.6319 25.0365 47.3343 25.0365H45.8836C45.5914 25.0365 45.4249 24.7035 45.6002 24.4697L49.2862 19.5668C49.4616 19.333 49.2951 19 49.0028 19H43.1736C43.0389 19 42.9149 19.0762 42.8565 19.1966L40.0065 24.9621C39.8896 25.1977 40.0614 25.474 40.3236 25.474H41.6379C41.9 25.474 42.0718 25.7503 41.9549 25.9859L40.0065 29.9288C39.8896 30.1644 40.0614 30.4407 40.3236 30.4407H41.5617C41.8239 30.4407 41.9939 30.7134 41.8805 30.949L39.6806 35.4888C39.5053 35.8484 39.9676 36.176 40.2492 35.8926Z" fill="white"/>
</svg>
