<svg width="80" height="64" viewBox="0 0 80 64" fill="none" xmlns="http://www.w3.org/2000/svg">
<path d="M78.2077 0H0.977539V11.1202H78.2077V0Z" fill="#9F9E9B"/>
<path d="M75.5352 12.6236H3.78003V16.61H75.5352V12.6236Z" fill="#9F9E9B"/>
<path d="M75.5352 17.2744H3.78003V21.2608H75.5352V17.2744Z" fill="#9F9E9B"/>
<path d="M75.5352 21.9252H3.78003V25.9116H75.5352V21.9252Z" fill="#9F9E9B"/>
<path d="M75.5352 26.576H3.78003V30.5624H75.5352V26.576Z" fill="#9F9E9B"/>
<path d="M75.5352 31.2268H3.78003V35.2132H75.5352V31.2268Z" fill="#9F9E9B"/>
<path d="M75.5352 35.8776H3.78003V39.864H75.5352V35.8776Z" fill="#9F9E9B"/>
<path d="M75.5352 40.5284H3.78003V44.5148H75.5352V40.5284Z" fill="#9F9E9B"/>
<path d="M75.5352 45.1792H3.78003V49.1656H75.5352V45.1792Z" fill="#9F9E9B"/>
<path d="M75.5352 49.83H3.78003V53.8164H75.5352V49.83Z" fill="#9F9E9B"/>
<path d="M75.5352 54.4808H3.78003V58.4672H75.5352V54.4808Z" fill="#9F9E9B"/>
<path d="M80 59.1316H0V63.3068H80V59.1316Z" fill="#9F9E9B"/>
<path d="M78.1928 12.6236H76.864V58.4672H78.1928V12.6236Z" fill="#9F9E9B"/>
<path d="M2.45136 12.6236H1.12256V58.4672H2.45136V12.6236Z" fill="#9F9E9B"/>
</svg>
