<svg width="86" height="64" viewBox="0 0 86 64" fill="none" xmlns="http://www.w3.org/2000/svg">
<path d="M82.6067 0H3.2439V11.4272H82.6067V0Z" fill="#9F9E9B"/>
<path d="M84.4487 59.3756H2.2395V63.6661H84.4487V59.3756Z" fill="#9F9E9B"/>
<path d="M2.23941 2.23938H0V8.76923H2.23941V2.23938Z" fill="#9F9E9B"/>
<path d="M86.0001 2.44873H83.7607V8.97859H86.0001V2.44873Z" fill="#9F9E9B"/>
<path d="M85.4221 11.008H84.5012V34.2601H85.4221V11.008Z" fill="#9F9E9B"/>
<path d="M85.9243 35.2856H83.936V39.4714H85.9243V35.2856Z" fill="#9F9E9B"/>
<rect x="3.43994" y="12.384" width="2.064" height="46.096" fill="#9F9E9B"/>
<rect x="80.4958" y="12.384" width="2.064" height="46.096" fill="#9F9E9B"/>
<path fill-rule="evenodd" clip-rule="evenodd" d="M6.19214 12.384H79.8081V44.032H6.19214V12.384ZM53.0833 20.8333V32.3333C53.0833 33.3875 52.2208 34.25 51.1666 34.25H39.6666C38.6125 34.25 37.75 33.3875 37.75 32.3333V20.8333C37.75 19.7792 38.6125 18.9167 39.6666 18.9167H51.1666C52.2208 18.9167 53.0833 19.7792 53.0833 20.8333ZM44.487 31.0971L42.5416 28.5L39.6666 32.3333H51.1666L47.3332 27.5417L44.487 31.0971ZM33.9166 36.1667V22.75H35.8333V36.1667H49.2499V38.0833H35.8333C34.7791 38.0833 33.9166 37.2208 33.9166 36.1667Z" fill="#9F9E9B"/>
</svg>
