<svg width="83" height="64" viewBox="0 0 83 64" fill="none" xmlns="http://www.w3.org/2000/svg">
<path fill-rule="evenodd" clip-rule="evenodd" d="M1 0H81V3H1V0ZM0.251221 59.687H82.8916V64H0.251221V59.687ZM1 4H4V14.4074L5 19.4289V4H7V29.4719L8 34.4934V7.43469V4H10V12.3576L11 17.3791V4H13V27.4221L14 32.4436V7.43469V4H16V12.3576L17 17.3791V4H19V27.4221L20 32.4436V4H22V42.4866L23 47.5081V7.43469V4H25V12.3576L26.4082 19.4289V4H28.4082V29.4719L29.4082 34.4934V7.43469V4H31.4082V12.3576L32.4082 17.3791V4H34.4082V27.4221L35.4082 32.4436V7.43469V4H37.4082V12.3576L38.4082 17.3791V4H40.4082V27.4221L41.4082 32.4436V4H43.4082V42.4866L44.4082 47.5081V4H46.4082V59H44.4082V52.6282L43.4082 47.6067V59H41.4082V37.5637L40.4082 32.5422V59H38.4082V52.6282L37.4082 47.6067V59H35.4082V37.5637L34.4082 32.5422V59H32.4082V54.6779L31.4082 49.6564V59H29.4082V39.6135L28.4082 34.592V59H26.4082V24.549L25 17.4777V59H23V52.6282L22 47.6067V59H20V37.5637L19 32.5422V59H17V52.6282L16 47.6067V59H14V37.5637L13 32.5422V59H11V54.6779L10 49.6565V59H8V39.6135L7 34.592V59H5V24.549L4 19.5275V59H1V4ZM38.4082 22.4992L37.4082 17.4777V42.4866L38.4082 47.5081V22.4992ZM31.4082 44.5364V17.4777L32.4082 22.4992V49.5579L31.4082 44.5364ZM17 22.4992L16 17.4777V42.4866L17 47.5081V22.4992ZM10 44.5364V17.4777L11 22.4992V49.5578L10 44.5364ZM81 4H79V59H81V4Z" fill="#9F9E9B"/>
</svg>
