<svg width="25" height="25" viewBox="0 0 25 25" fill="none" xmlns="http://www.w3.org/2000/svg">
<path fill-rule="evenodd" clip-rule="evenodd" d="M12.6315 0.438599C9.32005 0.438599 8.90549 0.452824 7.6049 0.511757C3.17682 0.714973 0.715867 3.17186 0.512651 7.60401C0.452702 8.90561 0.438477 9.32017 0.438477 12.6316C0.438477 15.943 0.452702 16.3586 0.511634 17.6592C0.714851 22.0872 3.17174 24.5482 7.60389 24.7514C8.90549 24.8103 9.32005 24.8246 12.6315 24.8246C15.9429 24.8246 16.3584 24.8103 17.659 24.7514C22.0831 24.5482 24.5501 22.0913 24.7503 17.6592C24.8102 16.3586 24.8244 15.943 24.8244 12.6316C24.8244 9.32017 24.8102 8.90561 24.7513 7.60502C24.5521 3.181 22.0922 0.715989 17.66 0.512773C16.3584 0.452824 15.9429 0.438599 12.6315 0.438599ZM12.6315 6.37048C9.17378 6.37048 6.37041 9.17385 6.37041 12.6316C6.37041 16.0893 9.17378 18.8937 12.6315 18.8937C16.0892 18.8937 18.8926 16.0903 18.8926 12.6316C18.8926 9.17385 16.0892 6.37048 12.6315 6.37048ZM12.6314 16.6959C10.3869 16.6959 8.5671 14.8771 8.5671 12.6316C8.5671 10.3871 10.3869 8.56726 12.6314 8.56726C14.876 8.56726 16.6958 10.3871 16.6958 12.6316C16.6958 14.8771 14.876 16.6959 12.6314 16.6959ZM19.1405 4.66042C18.3317 4.66042 17.6763 5.3158 17.6763 6.12358C17.6763 6.93137 18.3317 7.58674 19.1405 7.58674C19.9483 7.58674 20.6027 6.93137 20.6027 6.12358C20.6027 5.3158 19.9483 4.66042 19.1405 4.66042Z" fill="white"/>
</svg>
