<svg width="22" height="23" viewBox="0 0 22 23" fill="none" xmlns="http://www.w3.org/2000/svg">
<path fill-rule="evenodd" clip-rule="evenodd" d="M0 5C0 2.23858 2.23857 0 5 0H17.26C20.0214 0 22.26 2.23857 22.26 5V17.26C22.26 20.0214 20.0214 22.26 17.26 22.26H5C2.23858 22.26 0 20.0214 0 17.26V5ZM7.86699 10.4489C6.9765 9.33384 6.3004 8.09172 5.76692 6.77428C5.57921 6.31177 5.27534 6.12377 4.82973 6.09964C4.78328 6.09715 1.99064 6.03893 1.84049 6.09735C1.59964 6.19108 1.52906 6.46339 1.60472 6.74845C1.62748 6.83358 2.4745 8.63595 2.51724 8.72157C3.3535 10.3964 4.26949 12.0235 5.42916 13.5037C6.15919 14.4356 7.00195 15.2347 8.05734 15.7998C9.30253 16.467 10.6392 16.6207 12.0185 16.5459C12.4963 16.5196 12.7678 16.2477 12.798 15.8212C12.8039 15.7396 12.9282 14.7846 13.0722 14.4209C13.2406 13.9974 13.5945 13.9364 13.9551 14.2114C14.1079 14.3277 14.2497 14.461 14.3825 14.6C14.5403 14.7652 14.6951 14.9334 14.8499 15.1016C15.1274 15.4031 15.4048 15.7046 15.6995 15.9883C16.1122 16.3854 16.6247 16.5882 17.2094 16.5909C17.2257 16.591 17.2852 16.5923 17.3765 16.5944C17.9154 16.6068 19.5612 16.6446 19.9419 16.5909C20.6496 16.4906 20.8836 15.9273 20.5048 15.3292C20.2053 14.8563 19.8555 14.4071 19.4775 13.993C19.1709 13.6576 18.8453 13.3397 18.5196 13.0219C18.2927 12.8005 18.0659 12.579 17.8454 12.3516C17.508 12.0035 17.492 11.7691 17.7233 11.3511C17.788 11.2348 17.8575 11.1202 17.9364 11.0128C18.1461 10.7269 18.3576 10.4422 18.569 10.1575C18.9811 9.60264 19.3932 9.04781 19.7926 8.48404C20.1692 7.95232 20.5208 7.39925 20.6675 6.74854C20.7303 6.47086 20.6238 6.25204 20.3555 6.16646C20.1901 6.11386 20.007 6.09735 19.8318 6.09647C18.8442 6.09334 17.8565 6.09422 16.8689 6.09647C16.3435 6.09779 16.195 6.20388 16.0012 6.69232C15.6263 7.63893 15.1909 8.55702 14.608 9.39358C14.2871 9.8535 13.9453 10.3063 13.5575 10.7088C13.2522 11.0256 12.9536 10.9155 12.8569 10.477C12.7878 10.1623 12.7642 9.83118 12.7682 9.50807C12.7737 9.02168 12.7899 8.53529 12.806 8.04881C12.8171 7.71196 12.8283 7.37506 12.836 7.03809C12.8404 6.84643 12.8239 6.65168 12.7918 6.46226C12.7299 6.09505 12.5284 5.83119 12.1523 5.74918C11.8639 5.68632 11.5693 5.66273 11.2765 5.66004C11.0909 5.6582 10.9053 5.65473 10.7196 5.65125C10.1858 5.64126 9.65162 5.63127 9.11893 5.66004C8.67591 5.68368 8.26737 5.74342 7.97411 6.11825C7.83324 6.29829 7.85361 6.47877 8.07287 6.51844C8.78288 6.64636 8.95447 7.07019 8.98074 7.55287C9.02129 8.30649 9.03819 8.80099 9.02348 9.55555C9.01811 9.84432 8.9277 10.4016 8.82918 10.6766C8.73603 10.9387 8.5199 10.994 8.29081 10.8366C8.13397 10.7292 7.9851 10.5973 7.86699 10.4489Z" fill="white"/>
</svg>
